<?xml version="1.0" encoding="utf-8"?>
<!-- Generator: Adobe Illustrator 18.1.1, SVG Export Plug-In . SVG Version: 6.00 Build 0)  -->
<svg version="1.1" id="Layer_1" xmlns="http://www.w3.org/2000/svg" xmlns:xlink="http://www.w3.org/1999/xlink" x="0px" y="0px"
	 width="200px" height="200px" viewBox="0 0 200 200" enable-background="new 0 0 200 200" xml:space="preserve">
<g>
	<g>
		<path fill="#231F20" d="M83.92,156.59c0,0-0.08-0.22-0.19-0.66c-0.12-0.43-0.23-1.09-0.41-1.9c-0.18-0.8-0.32-1.78-0.54-2.95
			c-0.09-0.59-0.19-1.21-0.31-1.88c-0.1-0.67-0.24-1.38-0.41-2.12c-0.63-2.99-1.73-6.55-3.4-10.51c-1.67-3.96-3.94-8.29-6.55-13
			c-1.29-2.36-2.67-4.82-4-7.46c-1.32-2.64-2.61-5.45-3.52-8.57c-0.44-1.56-0.8-3.19-0.94-4.9c-0.03-0.43-0.04-0.86-0.06-1.29
			l-0.01-0.32l0.01-0.37l0.03-0.6c0.03-0.8,0.07-1.61,0.1-2.42c0-0.79,0.17-1.67,0.26-2.52c0.12-0.85,0.2-1.72,0.37-2.57
			c0.41-1.67,0.68-3.38,1.3-5.03c1-3.35,2.6-6.59,4.58-9.61c1.95-3.05,4.49-5.77,7.38-8.08c2.9-2.29,6.16-4.23,9.74-5.41
			c3.58-1.22,7.28-1.82,11.14-1.78c3.49,0.07,7.44,0.58,10.98,1.64c3.57,1.16,6.95,2.88,9.89,5.17c2.97,2.27,5.31,5.2,7.19,8.28
			c0.98,1.53,1.68,3.19,2.43,4.8c0.59,1.67,1.24,3.31,1.62,5.02c0.5,1.67,0.73,3.38,1.04,5.06c0.13,0.84,0.18,1.69,0.28,2.52
			c0.09,0.84,0.18,1.67,0.18,2.5c0.03,0.83,0.05,1.66,0.07,2.48l0.01,0.31c0-0.05,0,0.15,0,0.16l0,0.07l-0.01,0.15l-0.04,0.6
			l-0.08,1.19c-0.02,1.54-0.46,3.25-0.73,4.85c-1.57,6.25-4.44,11.52-7.02,16.26c-2.63,4.73-5.07,8.99-6.86,12.92
			c-0.49,0.97-0.86,1.94-1.25,2.86c-0.39,0.93-0.77,1.82-1.05,2.7c-0.3,0.88-0.6,1.72-0.87,2.52c-0.22,0.82-0.43,1.6-0.63,2.34
			c-0.46,1.47-0.66,2.83-0.89,4c-0.1,0.59-0.23,1.13-0.29,1.63c-0.05,0.5-0.1,0.96-0.14,1.37c-0.18,1.65-0.28,2.53-0.28,2.53
			l-0.01,0.07c-0.04,0.38-0.39,0.66-0.77,0.62c-0.36-0.04-0.62-0.34-0.62-0.69c0,0,0-0.92-0.01-2.63c0-0.43,0-0.91,0.01-1.44
			c0.01-0.53,0.12-1.1,0.18-1.72c0.16-1.24,0.27-2.68,0.68-4.24c0.18-0.78,0.38-1.61,0.58-2.48c0.27-0.84,0.56-1.73,0.86-2.65
			c0.27-0.93,0.66-1.86,1.06-2.82c0.4-0.96,0.78-1.97,1.27-2.97c1.82-4.06,4.28-8.41,6.85-13.11c2.54-4.71,5.26-9.86,6.66-15.65
			c0.13-0.71,0.26-1.42,0.39-2.14c0.05-0.37,0.16-0.7,0.18-1.1l0.07-1.18l0.07-1.19l0.04-0.6l0.01-0.15l0-0.07c0-0.04,0,0.11,0,0.01
			l-0.01-0.29c-0.03-0.78-0.06-1.57-0.09-2.36c-0.01-0.79-0.1-1.58-0.19-2.37c-0.09-0.79-0.15-1.59-0.28-2.39
			c-0.3-1.58-0.53-3.19-1.01-4.75c-0.36-1.6-0.99-3.11-1.54-4.67c-0.71-1.48-1.35-3.01-2.26-4.4c-1.74-2.81-3.87-5.45-6.56-7.47
			c-2.66-2.04-5.72-3.58-8.98-4.61c-1.66-0.41-3.32-0.89-5-1.05c-1.62-0.31-3.48-0.31-5.26-0.4c-3.32,0.01-6.8,0.55-10,1.64
			c-3.24,1.06-6.21,2.83-8.85,4.91c-2.63,2.1-4.95,4.58-6.74,7.38c-1.81,2.77-3.3,5.74-4.22,8.85c-0.57,1.52-0.82,3.12-1.21,4.67
			c-0.16,0.78-0.22,1.55-0.34,2.32c-0.09,0.78-0.25,1.51-0.25,2.34c-0.04,0.81-0.07,1.62-0.11,2.42l-0.03,0.6l-0.01,0.23l0.01,0.27
			c0.02,0.37,0.02,0.73,0.05,1.09c0.12,1.46,0.43,2.9,0.83,4.31c0.82,2.82,2.04,5.5,3.31,8.05c1.28,2.56,2.65,5,3.94,7.37
			c2.61,4.72,4.94,9.16,6.68,13.28c1.74,4.11,2.9,7.88,3.57,11.05c0.71,3.16,0.9,5.72,0.74,7.5c-0.06,0.87-0.19,1.5-0.27,1.95
			c-0.09,0.44-0.15,0.66-0.15,0.66c-0.11,0.39-0.51,0.62-0.9,0.51C84.18,156.99,84,156.81,83.92,156.59z"/>
		<path fill="#231F20" d="M102.71,156.56c0,0-0.05-0.23-0.14-0.67c-0.08-0.43-0.18-1.13-0.22-2c-0.11-1.75-0.02-4.33,0.62-7.49
			c0.59-3.17,1.52-6.96,2.77-11.23c1.23-4.27,2.81-9.01,4.42-14.17c0.8-2.58,1.6-5.27,2.24-8.04c0.31-1.39,0.58-2.8,0.7-4.2
			c0.12-1.38,0.09-2.81-0.32-3.84c-0.1-0.25-0.23-0.47-0.37-0.65l-0.11-0.13l-0.03-0.03c0.03,0.02-0.1-0.1,0.05,0.04l-0.11-0.1
			l-0.11-0.1c-0.03-0.02,0,0.01,0,0.01c0.02,0.02,0.05,0.02,0.02,0.02c-0.03-0.01-0.07-0.03-0.24,0.01c-0.16,0.03-0.4,0.14-0.64,0.3
			c-1.01,0.64-2.05,1.84-2.96,3.06c-1.83,2.5-3.39,5.39-4.72,8.4c-1.31,3.01-2.46,6.23-2.95,9.44c-0.11,0.79-0.18,1.59-0.13,2.32
			c0.03,0.71,0.22,1.39,0.44,1.64c0.11,0.13,0.18,0.18,0.33,0.23c0.13,0.05,0.51,0.05,0.41,0.04c-0.05,0.03,0.13-0.07,0.28-0.28
			c0.16-0.21,0.32-0.52,0.46-0.85c0.57-1.37,0.86-3.1,1.05-4.79c0.18-1.71,0.25-3.46,0.24-5.22c-0.02-3.51-0.32-7.07-0.93-10.53
			c-0.31-1.73-0.7-3.44-1.22-5.07c-0.52-1.61-1.19-3.22-2.09-4.33c-0.45-0.54-0.93-0.86-1.27-0.9c-0.05,0-0.09,0-0.14-0.01
			c-0.03,0,0.16-0.01,0.04,0l-0.08,0.01l-0.17,0.01c-0.01,0.02,0.01,0.01-0.02,0.02l-0.15,0.05c-0.21,0.09-0.47,0.25-0.72,0.48
			c-1.04,0.92-1.94,2.41-2.68,3.9c-1.49,3.02-2.52,6.35-3.13,9.64c-0.3,1.65-0.49,3.3-0.47,4.89c0.01,0.79,0.08,1.56,0.24,2.25
			c0.15,0.69,0.43,1.27,0.72,1.53c0.27,0.24,0.54,0.34,1.12,0.24c0.26-0.05,0.62-0.15,0.85-0.27c0.01-0.01,0.16-0.11,0.23-0.25
			c0.18-0.31,0.27-0.96,0.21-1.64c-0.05-0.68-0.21-1.41-0.42-2.12c-0.88-2.87-2.44-5.63-4.33-7.78c-0.93-1.05-2.06-1.99-3.05-2.27
			c-0.49-0.13-0.83-0.1-1.16,0.09c-0.49,0.31-0.9,0.67-1.23,1.12c-0.65,0.88-0.89,2.04-0.84,3.28c0.04,1.24,0.32,2.52,0.68,3.77
			c0.73,2.49,1.75,4.86,2.73,7.11c1.01,2.26,1.97,4.4,2.87,6.41c1.8,4.05,3.25,7.69,4.12,10.81c0.88,3.12,1.2,5.68,1.28,7.43
			c0.03,0.88,0.03,1.55,0.01,2c-0.03,0.45-0.04,0.68-0.04,0.68c-0.02,0.39-0.35,0.68-0.74,0.66c-0.35-0.02-0.62-0.29-0.66-0.63
			l0-0.03c0,0-0.02-0.22-0.06-0.64c-0.05-0.42-0.11-1.05-0.24-1.87c-0.25-1.63-0.76-4-1.72-6.94c-0.95-2.95-2.34-6.48-4.16-10.47
			c-0.92-2.01-1.9-4.14-2.93-6.39c-1.01-2.28-2.08-4.69-2.9-7.41c-0.4-1.36-0.74-2.8-0.81-4.39c-0.07-1.56,0.21-3.39,1.31-4.9
			c0.52-0.74,1.24-1.37,2.01-1.85c0.95-0.59,2.23-0.66,3.18-0.38c1.94,0.59,3.19,1.8,4.34,3.01c2.23,2.51,3.92,5.42,5,8.78
			c0.25,0.85,0.47,1.73,0.55,2.7c0.06,0.96,0.08,2.03-0.52,3.22c-0.33,0.59-0.78,1.11-1.53,1.49c-0.52,0.24-0.97,0.38-1.54,0.49
			c-0.54,0.11-1.18,0.13-1.83-0.02c-0.65-0.14-1.29-0.49-1.77-0.94c-0.95-0.92-1.32-1.99-1.57-2.96c-0.24-0.98-0.32-1.93-0.34-2.86
			c-0.04-1.87,0.16-3.67,0.47-5.47c0.65-3.57,1.69-7.08,3.32-10.47c0.86-1.68,1.78-3.36,3.42-4.85c0.42-0.37,0.91-0.72,1.53-0.98
			c0.15-0.07,0.32-0.12,0.49-0.17c0.19-0.05,0.43-0.1,0.64-0.13l0.17-0.01l0.08-0.01c-0.07,0,0.18-0.01,0.21-0.01
			c0.18,0.01,0.36,0.02,0.54,0.04c1.47,0.23,2.47,1.14,3.17,1.96c1.37,1.72,2.05,3.54,2.65,5.34c0.58,1.81,0.99,3.64,1.32,5.47
			c0.64,3.67,0.95,7.35,0.97,11.05c0,1.85-0.06,3.7-0.26,5.56c-0.22,1.86-0.48,3.72-1.27,5.65c-0.21,0.49-0.45,0.98-0.83,1.48
			c-0.39,0.49-0.87,1.04-1.78,1.35c-0.25,0.08-0.61,0.14-0.65,0.14l-0.3,0.02l-0.25-0.01c-0.32-0.01-0.67-0.07-1.01-0.17
			c-0.7-0.2-1.39-0.67-1.82-1.24c-0.88-1.16-1-2.32-1.09-3.34c-0.06-1.03,0.03-1.99,0.16-2.92c0.57-3.7,1.8-7.04,3.18-10.24
			c1.42-3.19,3.03-6.21,5.06-8.98c1.05-1.37,2.11-2.72,3.79-3.82c0.43-0.27,0.91-0.52,1.53-0.67c0.6-0.15,1.39-0.16,2.09,0.14
			c0.17,0.06,0.36,0.17,0.55,0.29c0.08,0.05,0.2,0.14,0.25,0.17l0.11,0.1l0.11,0.1c0.19,0.17,0.09,0.09,0.15,0.15l0.07,0.08
			c0.09,0.1,0.19,0.21,0.27,0.31c0.34,0.44,0.6,0.9,0.79,1.37c0.73,1.9,0.65,3.63,0.53,5.24c-0.14,1.61-0.44,3.13-0.76,4.6
			c-0.67,2.93-1.5,5.66-2.3,8.27c-1.63,5.21-3.19,9.91-4.41,14.12c-1.23,4.2-2.13,7.89-2.7,10.95c-0.54,3.06-0.96,5.44-1.28,7.08
			c-0.31,1.62-0.53,2.54-0.53,2.54l0,0.01c-0.1,0.38-0.48,0.62-0.87,0.52C102.97,157.04,102.77,156.82,102.71,156.56z"/>
		<path fill="#231F20" d="M78.74,153.89c0,0,0.29-0.17,0.62-0.26c0.18-0.05,0.35-0.07,0.57-0.03c0.21,0.04,0.41,0.15,0.66,0.25
			c0.5,0.18,1.1,0.43,1.81,0.65c0.7,0.25,1.52,0.47,2.41,0.72c0.9,0.21,1.87,0.46,2.92,0.64c1.05,0.19,2.15,0.38,3.31,0.51
			c1.15,0.18,2.35,0.23,3.57,0.33c1.22,0.09,2.47,0.04,3.71,0.1c1.24-0.05,2.49-0.06,3.72-0.14c1.22-0.12,2.43-0.24,3.6-0.35
			c1.16-0.19,2.28-0.37,3.34-0.54c1.06-0.18,2.05-0.45,2.97-0.65c0.92-0.21,1.77-0.39,2.5-0.63c0.73-0.22,1.38-0.41,1.92-0.51
			c1.09-0.21,1.78-0.15,1.78-0.15l0.05,0c0.41,0.04,0.72,0.4,0.68,0.81c-0.02,0.2-0.12,0.38-0.26,0.51c0,0-0.53,0.45-1.57,0.92
			c-0.52,0.24-1.17,0.46-1.93,0.72c-0.74,0.28-1.61,0.49-2.56,0.74c-0.95,0.24-1.96,0.56-3.06,0.79c-1.1,0.22-2.26,0.45-3.47,0.69
			c-1.22,0.17-2.47,0.34-3.75,0.51c-1.28,0.12-2.6,0.19-3.91,0.29c-1.31,0-2.63,0.03-3.93-0.04c-1.29-0.09-2.57-0.13-3.8-0.31
			c-0.61-0.08-1.22-0.14-1.81-0.23c-0.59-0.11-1.16-0.22-1.72-0.32c-1.12-0.21-2.16-0.49-3.12-0.74c-0.96-0.28-1.83-0.53-2.6-0.81
			c-0.77-0.25-1.43-0.53-1.98-0.74c-0.27-0.12-0.52-0.21-0.71-0.35c-0.19-0.13-0.34-0.31-0.44-0.49c-0.21-0.35-0.2-0.67-0.2-0.67
			l0-0.14C78.1,154.52,78.36,154.11,78.74,153.89z"/>
		<path fill="#231F20" d="M84.29,149.79c-0.75,0.39-1.5,0.56-2.25,0.69c-0.75,0.12-1.5,0.12-2.25,0.12l-4.5,0.01l1.51-1.51
			l0.05,27.25l-0.25-0.85c0.18,0.25,0.54,0.68,0.86,1.01c0.34,0.35,0.7,0.68,1.08,1.01c0.76,0.64,1.58,1.23,2.44,1.76
			c1.73,1.06,3.63,1.87,5.59,2.5c1.97,0.61,4.02,1.04,6.09,1.29c1.04,0.12,2.08,0.22,3.13,0.27c0.52,0.04,1.05,0.05,1.58,0.06
			c0.25,0,0.55,0.02,0.77,0.01l0.81-0.01c1.09-0.02,2.06-0.08,3.12-0.19c1.04-0.11,2.07-0.26,3.08-0.47
			c2.03-0.42,4.03-1.01,5.92-1.85c1.9-0.82,3.69-1.87,5.33-3.11c0.82-0.62,1.6-1.3,2.32-2.01c0.71-0.71,1.43-1.53,1.92-2.25
			l-0.2,0.7l0.08-11.53l0.04-5.76c0.01-1.92,0.02-3.84,0.06-5.76l1.15,1.15c-1.07-0.03-2.14-0.08-3.21-0.15
			c-1.07-0.07-2.14-0.17-3.21-0.3c-0.39-0.05-0.66-0.4-0.61-0.79c0.04-0.33,0.3-0.57,0.61-0.61c1.07-0.14,2.14-0.23,3.21-0.3
			c1.07-0.07,2.14-0.11,3.21-0.15c0.61-0.02,1.13,0.46,1.15,1.08l0,0.01l0,0.06c0.04,1.92,0.04,3.84,0.06,5.76l0.04,5.76l0.08,11.53
			l0,0.02c0,0.25-0.07,0.48-0.2,0.68c-0.72,1.09-1.44,1.89-2.25,2.74c-0.81,0.82-1.66,1.58-2.57,2.28c-1.8,1.4-3.77,2.59-5.85,3.52
			c-2.07,0.95-4.26,1.63-6.47,2.12c-1.11,0.24-2.23,0.42-3.35,0.55c-1.1,0.13-2.3,0.22-3.38,0.25l-0.81,0.02
			c-0.33,0.01-0.57,0-0.86,0c-0.56,0-1.12-0.01-1.68-0.04c-1.12-0.03-2.24-0.13-3.36-0.26c-2.24-0.26-4.46-0.72-6.65-1.38
			c-2.17-0.69-4.3-1.58-6.29-2.78c-0.99-0.6-1.95-1.28-2.85-2.03c-0.45-0.38-0.89-0.78-1.3-1.21c-0.43-0.45-0.79-0.84-1.24-1.48
			c-0.17-0.25-0.25-0.53-0.25-0.81l0-0.04l0.05-27.25l0-0.01c0-0.83,0.68-1.51,1.51-1.51h0l4.5,0.01c0.75,0,1.5,0,2.25,0.12
			c0.75,0.12,1.5,0.3,2.25,0.69c0.39,0.2,0.54,0.68,0.34,1.06C84.55,149.6,84.43,149.72,84.29,149.79z"/>
		<path fill="#231F20" d="M81.14,184.4c0,0,0.31-0.08,0.68-0.02c0.19,0.02,0.39,0.1,0.56,0.2c0.17,0.11,0.32,0.28,0.51,0.45
			c0.74,0.68,1.89,1.57,3.47,2.34c0.78,0.4,1.67,0.75,2.64,1.07c0.97,0.31,2.02,0.57,3.12,0.8c0.55,0.1,1.13,0.18,1.7,0.27
			c0.58,0.07,1.17,0.11,1.77,0.17c0.6,0.06,1.21,0.05,1.81,0.08l0.46,0.02l0.11,0c-0.17,0.01-0.04,0-0.07,0l0.01,0l0.03,0l0.06,0
			l0.24-0.01l0.95-0.04c0.31-0.02,0.65-0.02,0.94-0.05l0.82-0.13l0.82-0.12c0.28-0.06,0.56-0.15,0.83-0.22
			c0.56-0.14,1.11-0.29,1.63-0.52c0.53-0.2,1.05-0.4,1.54-0.67c0.5-0.25,0.98-0.49,1.42-0.8c0.46-0.28,0.9-0.56,1.3-0.88
			c0.41-0.3,0.81-0.61,1.17-0.94c0.37-0.32,0.72-0.63,1.03-0.96c0.65-0.63,1.19-1.26,1.65-1.83c0.47-0.57,0.84-1.1,1.18-1.5
			c0.35-0.41,0.63-0.72,0.84-0.92c0.21-0.21,0.33-0.3,0.33-0.3l0.09-0.07c0.32-0.24,0.79-0.18,1.03,0.15
			c0.12,0.16,0.16,0.34,0.14,0.52c0,0-0.02,0.2-0.1,0.51c-0.08,0.32-0.23,0.76-0.49,1.29c-0.26,0.53-0.65,1.13-1.14,1.78
			c-0.49,0.65-1.06,1.37-1.76,2.1c-0.33,0.38-0.71,0.74-1.11,1.11c-0.39,0.39-0.82,0.74-1.28,1.11c-0.44,0.38-0.93,0.72-1.44,1.06
			c-0.5,0.36-1.04,0.67-1.61,0.98c-0.55,0.33-1.15,0.59-1.76,0.85c-0.6,0.29-1.24,0.49-1.89,0.68c-0.33,0.1-0.64,0.21-0.98,0.29
			l-1.05,0.2l-1.05,0.19c-0.34,0.04-0.64,0.05-0.96,0.08l-0.95,0.07l-0.24,0.02l-0.21,0.01l-0.12,0l-0.49-0.01
			c-0.66-0.02-1.32-0.01-1.97-0.06c-0.65-0.06-1.3-0.09-1.94-0.17c-0.64-0.09-1.27-0.17-1.89-0.28c-0.62-0.13-1.23-0.24-1.82-0.39
			c-0.59-0.18-1.17-0.31-1.72-0.52c-1.11-0.38-2.14-0.8-3.05-1.29c-1.84-0.94-3.23-2.03-4.11-2.87c-0.47-0.39-0.76-0.78-0.77-1.17
			c-0.04-0.37,0.05-0.68,0.05-0.68C80.28,184.88,80.67,184.52,81.14,184.4z"/>
		<path fill="#231F20" d="M94.61,5.96c0,0,0.29,0.14,0.54,0.42c0.13,0.14,0.24,0.31,0.3,0.53c0.06,0.21,0.05,0.46,0.08,0.73
			c0.08,1.1,0.19,2.67,0.32,4.55c0.12,1.88,0.31,4.08,0.43,6.43c0.13,2.35,0.29,4.87,0.42,7.38c0.23,5.03,0.45,10.05,0.62,13.82
			c0.07,1.89,0.2,3.45,0.14,4.56c-0.06,1.11-0.29,1.75-0.29,1.75c-0.14,0.4-0.57,0.6-0.97,0.47c-0.19-0.07-0.34-0.21-0.43-0.38
			c0,0-0.31-0.61-0.51-1.7c-0.2-1.09-0.26-2.66-0.44-4.54c-0.31-3.76-0.73-8.78-1.14-13.79c-0.2-2.51-0.36-5.02-0.52-7.37
			c-0.18-2.35-0.27-4.55-0.39-6.43c-0.11-1.88-0.2-3.45-0.26-4.55c-0.01-0.28-0.05-0.52-0.01-0.74c0.03-0.22,0.12-0.4,0.23-0.56
			c0.21-0.31,0.48-0.48,0.48-0.48C93.65,5.77,94.18,5.75,94.61,5.96z"/>
		<path fill="#231F20" d="M66.16,54.69c0,0-0.3,0.02-0.63-0.08c-0.15-0.05-0.33-0.13-0.45-0.27c-0.13-0.13-0.21-0.32-0.32-0.52
			c-0.45-0.79-1.09-1.93-1.86-3.29c-0.76-1.37-1.69-2.94-2.61-4.66c-0.93-1.72-1.94-3.54-2.92-5.39c-1.94-3.69-3.88-7.39-5.33-10.16
			c-0.71-1.39-1.37-2.52-1.7-3.38c-0.33-0.86-0.35-1.45-0.35-1.45c-0.01-0.43,0.32-0.8,0.76-0.81c0.17-0.01,0.33,0.04,0.47,0.13
			c0,0,0.49,0.33,1.04,1.06c0.55,0.74,1.16,1.89,1.96,3.24c1.58,2.7,3.68,6.3,5.79,9.91c1.04,1.81,2.05,3.63,3.02,5.33
			c0.97,1.7,1.82,3.32,2.57,4.69c0.75,1.37,1.37,2.52,1.8,3.32c0.1,0.2,0.22,0.37,0.27,0.55c0.05,0.17,0.02,0.36-0.01,0.52
			c-0.09,0.33-0.26,0.57-0.26,0.57C67.09,54.43,66.63,54.66,66.16,54.69z"/>
		<path fill="#231F20" d="M152.22,16.25c0,0,0.15,0.3,0.17,0.7c0.02,0.2-0.01,0.43-0.09,0.66c-0.09,0.23-0.25,0.45-0.4,0.72
			c-0.63,1.06-1.54,2.56-2.63,4.37c-1.09,1.8-2.34,3.93-3.73,6.17c-1.39,2.24-2.87,4.64-4.35,7.03c-3.01,4.76-6.02,9.52-8.28,13.08
			c-1.14,1.78-2.03,3.29-2.78,4.28c-0.75,0.98-1.35,1.45-1.35,1.45c-0.33,0.25-0.8,0.2-1.05-0.13c-0.14-0.18-0.18-0.4-0.15-0.6
			c0,0,0.14-0.74,0.67-1.86c0.53-1.12,1.48-2.6,2.53-4.43c2.14-3.64,4.98-8.5,7.83-13.36c1.45-2.41,2.9-4.83,4.26-7.09
			c1.35-2.27,2.67-4.35,3.77-6.15c1.11-1.8,2.03-3.29,2.68-4.34c0.17-0.26,0.29-0.5,0.46-0.68c0.16-0.18,0.35-0.3,0.54-0.38
			c0.36-0.16,0.7-0.17,0.7-0.17C151.55,15.52,152,15.82,152.22,16.25z"/>
		<path fill="#231F20" d="M46.49,77c0,0-0.19,0.21-0.43,0.36c-0.11,0.06-0.25,0.13-0.36,0.12c-0.12,0-0.22-0.08-0.35-0.13
			c-0.5-0.24-1.21-0.57-2.07-0.98c-0.85-0.41-1.86-0.86-2.92-1.4c-1.05-0.54-2.19-1.09-3.31-1.68c-2.23-1.18-4.46-2.38-6.12-3.29
			c-0.82-0.47-1.55-0.78-1.99-1.14c-0.44-0.36-0.6-0.74-0.6-0.74c-0.2-0.46,0.01-1,0.47-1.21c0.05-0.02,0.1-0.04,0.15-0.05
			c0,0,0.4-0.1,0.95,0.02c0.55,0.12,1.25,0.51,2.12,0.87c1.74,0.76,4.05,1.78,6.35,2.83c1.15,0.53,2.28,1.08,3.35,1.59
			c1.08,0.5,2.05,1.02,2.89,1.44c0.84,0.43,1.55,0.79,2.04,1.04c0.12,0.07,0.24,0.1,0.32,0.19c0.08,0.08,0.11,0.23,0.13,0.36
			c0.03,0.28-0.02,0.56-0.02,0.56C47.02,76.24,46.8,76.67,46.49,77z"/>
		<path fill="#231F20" d="M47.18,104.6c0,0-0.15,0.25-0.4,0.45c-0.12,0.09-0.27,0.18-0.43,0.2c-0.16,0.02-0.33-0.03-0.53-0.05
			c-0.79-0.11-1.93-0.28-3.28-0.47c-1.36-0.2-2.95-0.4-4.64-0.69c-1.69-0.28-3.5-0.56-5.31-0.87c-3.6-0.65-7.21-1.3-9.91-1.79
			c-1.35-0.26-2.49-0.4-3.26-0.65c-0.77-0.25-1.18-0.58-1.18-0.58c-0.35-0.28-0.4-0.79-0.12-1.14c0.09-0.11,0.21-0.2,0.33-0.24
			c0,0,0.49-0.19,1.3-0.2c0.81,0,1.94,0.2,3.3,0.36c2.73,0.35,6.36,0.81,9.99,1.27c1.82,0.24,3.62,0.52,5.32,0.76
			c1.7,0.23,3.28,0.52,4.63,0.73c1.36,0.22,2.48,0.41,3.27,0.54c0.2,0.04,0.38,0.05,0.52,0.11c0.15,0.06,0.26,0.2,0.35,0.32
			c0.18,0.27,0.25,0.55,0.25,0.55C47.51,103.7,47.42,104.2,47.18,104.6z"/>
		<path fill="#231F20" d="M143.27,69.08c0,0,0.01-0.29,0.12-0.59c0.06-0.14,0.14-0.29,0.27-0.38c0.13-0.1,0.3-0.14,0.48-0.22
			c0.73-0.29,1.78-0.7,3.04-1.2c1.26-0.49,2.72-1.09,4.31-1.67c1.59-0.58,3.27-1.23,4.97-1.84c3.4-1.2,6.81-2.39,9.36-3.29
			c1.28-0.43,2.32-0.86,3.11-1.03c0.78-0.16,1.3-0.07,1.3-0.07c0.44,0.08,0.74,0.5,0.66,0.94c-0.02,0.14-0.08,0.27-0.17,0.37
			c0,0-0.33,0.41-1.02,0.81c-0.69,0.4-1.76,0.77-3,1.3c-2.5,1.03-5.84,2.4-9.17,3.78c-1.67,0.68-3.36,1.32-4.93,1.94
			c-1.57,0.63-3.06,1.15-4.33,1.62c-1.27,0.47-2.33,0.86-3.07,1.13c-0.19,0.06-0.34,0.14-0.5,0.16c-0.16,0.02-0.32-0.04-0.46-0.11
			c-0.28-0.15-0.48-0.36-0.48-0.36C143.42,70.02,143.25,69.55,143.27,69.08z"/>
		<path fill="#231F20" d="M147.15,99.12c0,0,0.09-0.27,0.28-0.53c0.1-0.12,0.21-0.24,0.36-0.29c0.15-0.06,0.32-0.05,0.51-0.07
			c0.77-0.06,1.87-0.16,3.19-0.27c1.32-0.1,2.86-0.26,4.52-0.35c1.65-0.1,3.42-0.23,5.18-0.32c3.53-0.16,7.07-0.32,9.72-0.44
			c1.33-0.04,2.43-0.16,3.21-0.09c0.78,0.08,1.24,0.31,1.24,0.31c0.4,0.2,0.56,0.7,0.36,1.1c-0.06,0.12-0.15,0.22-0.26,0.3
			c0,0-0.42,0.3-1.18,0.49c-0.76,0.18-1.87,0.23-3.19,0.38c-2.64,0.26-6.16,0.61-9.68,0.96c-1.76,0.16-3.52,0.29-5.18,0.43
			c-1.65,0.15-3.2,0.21-4.52,0.31c-1.32,0.08-2.43,0.15-3.2,0.2c-0.19,0.01-0.36,0.04-0.52,0c-0.15-0.03-0.29-0.13-0.4-0.23
			c-0.22-0.23-0.35-0.48-0.35-0.48C147.03,100.06,147.01,99.56,147.15,99.12z"/>
	</g>
</g>
</svg>
